<svg xmlns="http://www.w3.org/2000/svg" viewBox="0 0 512 512">
  <defs>
    <linearGradient id="bg" x1="0%" y1="0%" x2="0%" y2="100%">
      <stop offset="0%" style="stop-color:#059669"/>
      <stop offset="100%" style="stop-color:#064e3b"/>
    </linearGradient>
  </defs>
  <rect width="512" height="512" rx="96" fill="url(#bg)"/>
  <!-- Plate/bowl -->
  <ellipse cx="256" cy="290" rx="140" ry="50" fill="#d1fae5" opacity="0.3"/>
  <ellipse cx="256" cy="280" rx="130" ry="45" fill="#d1fae5" opacity="0.5"/>
  <!-- Magic sparkles -->
  <g fill="#fbbf24">
    <polygon points="160,160 165,175 180,175 168,185 172,200 160,190 148,200 152,185 140,175 155,175" />
    <polygon points="350,130 354,142 366,142 356,150 360,162 350,154 340,162 344,150 334,142 346,142" />
    <polygon points="256,110 260,122 272,122 262,130 266,142 256,134 246,142 250,130 240,122 252,122" />
  </g>
  <!-- Fork -->
  <g stroke="#ecfdf5" stroke-width="8" stroke-linecap="round" fill="none">
    <line x1="200" y1="200" x2="200" y2="350"/>
    <line x1="185" y1="200" x2="185" y2="250"/>
    <line x1="200" y1="200" x2="200" y2="250"/>
    <line x1="215" y1="200" x2="215" y2="250"/>
    <path d="M185,250 Q200,270 215,250" />
  </g>
  <!-- Spoon -->
  <g stroke="#ecfdf5" stroke-width="8" stroke-linecap="round" fill="none">
    <line x1="310" y1="270" x2="310" y2="350"/>
    <ellipse cx="310" cy="230" rx="25" ry="40" fill="#ecfdf5" opacity="0.3" stroke="#ecfdf5"/>
  </g>
  <!-- AI text -->
  <text x="256" y="420" text-anchor="middle" font-family="system-ui, sans-serif" font-weight="800" font-size="60" fill="#ecfdf5" letter-spacing="4">GENIE</text>
</svg>
